# xmcd
#
# Track frame offsets:
#       150
#       16912
#       32970
#       49392
#       64022
#       84375
#       98962
#       114225
#       135902
#       149630
#       165367
#       179350
#       193710
#       211722
#       224085
#       238165
#       250537
#       267442
#       283045
#       293707
#
# Disc length: 4154 seconds
#
# Revision: 0
# Processed by: cddbd v1.4PL0 Copyright (c) Steve Scherf et al.
# Submitted via: WhereIsIt 3.26
#
DISCID=29103814
DTITLE=Larry Jon Wilson - new beginnings/let me sing my song to you
DYEAR=1900
DGENRE=
TTITLE0=ohoopee river bottomland
TTITLE1=through the eyes of little children
TTITLE2=new beginnings
TTITLE3=the truth ain't in you
TTITLE4=canoochee revisited
TTITLE5=broomstraw philosophers and scuppernong wine
TTITLE6=lay me down again
TTITLE7=melt not my igloo
TTITLE8=things ain't what they used to be
TTITLE9=bertrand my son
TTITLE10=drowning in the mainstream
TTITLE11=let me sing my song to you
TTITLE12=sheldon churchyard
TTITLE13=I remember it well
TTITLE14=the ballad of handy mackey
TTITLE15=think I feel a hitchhike coming on
TTITLE16=willoughby grove
TTITLE17=life of a good man
TTITLE18=kindred spirit
TTITLE19=farther along
EXTD=
EXTT0=
EXTT1=
EXTT2=
EXTT3=
EXTT4=
EXTT5=
EXTT6=
EXTT7=
EXTT8=
EXTT9=
EXTT10=
EXTT11=
EXTT12=
EXTT13=
EXTT14=
EXTT15=
EXTT16=
EXTT17=
EXTT18=
EXTT19=
PLAYORDER=
